#!OML:ASF X:\für Bonn\!DataBase\2005_08_12_Daniel\c3d\Daniel.ASF
:FULLY-SPECIFIED
:DEGREES
2733
root -10.5036 15.939 -27.3551 -172.699 141.005 -177.961
lowerback 19.3081 -4.04941 5.94648
upperback 3.89849 -3.86907 1.52724
thorax -6.84533 -1.92096 -0.763613
lowerneck -6.9427 -7.88635 -11.1568
upperneck -1.32538 -9.75363 7.43975
head 1.62421 -4.73231 3.60724
rclavicle 5.08889e-014 2.38542e-014
rhumerus -44.9705 1.49845 -91.9879
rradius 79.8832
rwrist -2.29104
rhand -33.7154 36.7082
rfingers 7.12502
rthumb -6.90482 6.84078
lclavicle 5.08889e-014 2.38542e-014
lhumerus -62.2111 -6.18009 95.8785
lradius 93.5879
lwrist 20.8735
lhand -5.67164 -12.4244
lfingers 7.12502
lthumb 20.148 16.5508
rfemur -16.8943 -6.56857 34.0318
rtibia 54.5414
rfoot -31.9023 12.9136
rtoes 16.6337
lfemur -31.7817 8.70067 -12.3268
ltibia 104.57
lfoot -8.17126 1.57096
ltoes -23.8806
2734
root -10.3112 15.9954 -27.1205 -172.437 142.08 -177.552
lowerback 19.0573 -3.53836 5.46649
upperback 3.77048 -3.33521 1.37649
thorax -6.80037 -1.66237 -0.802424
lowerneck -6.17138 -7.98415 -11.0161
upperneck -2.05619 -9.96564 7.18935
head 1.43846 -4.85642 3.9334
rclavicle 6.32135e-014 -2.22639e-014
rhumerus -44.7917 3.4415 -92.9492
rradius 82.7514
rwrist -1.93838
rhand -33.1402 36.2799
rfingers 7.12502
rthumb -6.3496 6.39503
lclavicle 6.32135e-014 -2.22639e-014
lhumerus -63.6276 -5.94513 95.6436
lradius 94.2313
lwrist 21.3959
lhand -4.91253 -12.4597
lfingers 7.12502
lthumb 20.8775 16.4369
rfemur -14.8901 -5.67621 33.337
rtibia 53.1908
rfoot -31.3204 12.8154
rtoes 16.4242
lfemur -33.737 8.58809 -13.0946
ltibia 104.515
lfoot -8.31 2.49471
ltoes -22.7814
2735
root -10.1157 16.0669 -26.872 -172.172 143.188 -177.07
lowerback 18.8122 -3.00652 4.93185
upperback 3.64894 -2.78507 1.17351
thorax -6.75452 -1.39432 -0.865408
lowerneck -6.05453 -8.146 -10.8621
upperneck -1.94181 -10.2085 7.17876
head 1.46858 -4.98218 3.88743
rclavicle -5.40694e-014 2.22639e-014
rhumerus -44.8993 5.32861 -93.9388
rradius 85.6047
rwrist -1.82634
rhand -32.559 35.7957
rfingers 7.12502
rthumb -5.78846 5.89476
lclavicle -5.40694e-014 2.22639e-014
lhumerus -65.0026 -5.81302 95.3833
lradius 94.9512
lwrist 21.8624
lhand -4.18832 -12.148
lfingers 7.12502
lthumb 21.5731 16.6704
rfemur -12.7656 -4.6656 32.5964
rtibia 51.6766
rfoot -30.5427 12.5747
rtoes 16.2641
lfemur -35.3812 8.30589 -13.9473
ltibia 104.021
lfoot -8.20173 3.34506
ltoes -19.415
2736
root -9.91795 16.1445 -26.6155 -171.941 144.272 -176.565
lowerback 18.5645 -2.47883 4.36453
upperback 3.53317 -2.24081 0.990719
thorax -6.70341 -1.12696 -0.881863
lowerneck -5.96358 -8.32933 -10.8914
upperneck -1.75347 -10.4685 7.24978
head 1.54698 -5.1153 3.90083
rclavicle -6.16232e-014 -3.97569e-015
rhumerus -45.2427 7.20219 -94.8581
rradius 88.3917
rwrist -1.95017
rhand -31.9081 35.4938
rfingers 7.12502
rthumb -5.16004 5.57666
lclavicle -6.16232e-014 -3.97569e-015
lhumerus -66.3764 -5.61261 95.2214
lradius 95.7183
lwrist 22.2488
lhand -3.6932 -11.9104
lfingers 7.12502
lthumb 22.0486 16.8527
rfemur -10.5533 -3.65464 31.8355
rtibia 50.0495
rfoot -29.539 12.2866
rtoes 15.732
lfemur -36.8126 7.86956 -14.7984
ltibia 103.217
lfoot -8.03443 4.08295
ltoes -14.5809
2737
root -9.72042 16.2236 -26.359 -171.732 145.28 -176.067
lowerback 18.3254 -1.98254 3.93425
upperback 3.41429 -1.71187 0.735782
thorax -6.67213 -0.869671 -1.0442
lowerneck -5.98227 -8.54819 -10.8628
upperneck -1.37795 -10.7737 7.28601
head 1.7061 -5.2716 3.88001
rclavicle 1.94809e-014 -1.59028e-015
rhumerus -45.7918 8.88523 -95.8538
rradius 91.0979
rwrist -2.0935
rhand -31.3388 35.165
rfingers 7.12502
rthumb -4.61029 5.23518
lclavicle 1.94809e-014 -1.59028e-015
lhumerus -67.6787 -5.53638 95.034
lradius 96.4908
lwrist 22.6965
lhand -3.32219 -11.6718
lfingers 7.12502
lthumb 22.4047 17.0489
rfemur -8.38273 -2.7499 31.0784
rtibia 48.3967
rfoot -28.1955 11.9159
rtoes 15.3759
lfemur -38.1495 7.24871 -15.6057
ltibia 102.182
lfoot -7.89843 4.81708
ltoes -9.32576
2738
root -9.52251 16.303 -26.0929 -171.58 146.225 -175.531
lowerback 18.093 -1.47949 3.44402
upperback 3.32873 -1.18145 0.480668
thorax -6.60877 -0.608456 -1.16924
lowerneck -6.07732 -8.80748 -10.9239
upperneck -0.853141 -11.1229 7.73952
head 1.75734 -5.43277 3.59609
rclavicle 1.11319e-014 1.27222e-014
rhumerus -46.5443 10.4257 -96.839
rradius 93.7177
rwrist -2.32154
rhand -30.8821 35.2107
rfingers 7.12502
rthumb -4.16929 5.27178
lclavicle 1.11319e-014 1.27222e-014
lhumerus -68.8565 -5.50287 94.9151
lradius 97.1851
lwrist 22.9754
lhand -3.15953 -11.4244
lfingers 7.12502
lthumb 22.5608 17.2774
rfemur -6.18788 -1.93495 30.2983
rtibia 46.7186
rfoot -26.4713 11.517
rtoes 15.0542
lfemur -39.2054 6.54679 -16.3519
ltibia 100.841
lfoot -7.88182 5.4503
ltoes -4.11494
2739
root -9.3265 16.3805 -25.8189 -171.399 147.072 -174.959
lowerback 17.8048 -1.0082 2.90559
upperback 3.22698 -0.699768 0.224908
thorax -6.53689 -0.369318 -1.25232
lowerneck -6.08176 -9.07654 -11.1609
upperneck -0.330395 -11.4906 7.9266
head 1.9723 -5.61629 3.64797
rclavicle 5.28767e-014 -1.74931e-014
rhumerus -47.4474 11.8501 -97.8277
rradius 96.2347
rwrist -2.43574
rhand -30.5178 35.3536
rfingers 7.12502
rthumb -3.81749 5.40803
lclavicle 5.28767e-014 -1.74931e-014
lhumerus -70.0638 -5.38273 94.7774
lradius 97.839
lwrist 23.2179
lhand -3.13417 -11.4773
lfingers 7.12502
lthumb 22.5852 17.2215
rfemur -4.1027 -1.18236 29.5586
rtibia 45.0465
rfoot -24.4167 10.9078
rtoes 14.575
lfemur -40.094 5.77103 -17.0252
ltibia 99.1837
lfoot -8.09152 5.98411
ltoes -0.233369
2740
root -9.13088 16.4715 -25.5359 -171.272 147.854 -174.418
lowerback 17.5933 -0.556124 2.28385
upperback 3.11467 -0.249241 -0.00385108
thorax -6.52191 -0.143163 -1.24765
lowerneck -6.13942 -9.3154 -11.2792
upperneck 0.240415 -11.824 8.0923
head 2.20057 -5.78158 3.67322
rclavicle -5.32743e-014 2.38542e-015
rhumerus -48.4026 13.2093 -98.8157
rradius 98.5977
rwrist -2.39963
rhand -30.2347 35.5673
rfingers 7.12502
rthumb -3.54415 5.617
lclavicle -5.32743e-014 2.38542e-015
lhumerus -71.1111 -5.32063 94.6038
lradius 98.4196
lwrist 23.3956
lhand -3.26701 -11.4884
lfingers 7.12502
lthumb 22.4577 17.2259
rfemur -2.02115 -0.326125 28.9167
rtibia 43.3032
rfoot -22.0112 10.0112
rtoes 13.9902
lfemur -40.7199 4.84052 -17.6072
ltibia 97.1668
lfoot -8.28831 6.5427
ltoes 2.82953
2741
root -8.93578 16.5769 -25.2456 -171.057 148.583 -173.84
lowerback 17.3709 -0.114851 1.62268
upperback 2.93898 0.180877 -0.259922
thorax -6.57449 0.0730288 -1.24266
lowerneck -6.23008 -9.56932 -11.2557
upperneck 0.93564 -12.1867 8.12875
head 2.45828 -5.96253 3.63107
rclavicle 4.85035e-014 -7.95139e-015
rhumerus -49.2898 14.3646 -99.6976
rradius 100.549
rwrist -2.34655
rhand -29.8932 36.0774
rfingers 7.12502
rthumb -3.2143 6.12193
lclavicle 4.85035e-014 -7.95139e-015
lhumerus -72.1145 -5.27325 94.4188
lradius 98.8569
lwrist 23.5635
lhand -3.44577 -11.6591
lfingers 7.12502
lthumb 22.2861 17.0758
rfemur -0.0922999 0.625288 28.3096
rtibia 41.5367
rfoot -19.3305 8.88556
rtoes 13.177
lfemur -41.2212 3.8443 -18.1655
ltibia 94.8593
lfoot -8.695 7.0311
ltoes 4.81033
2742
root -8.74225 16.6954 -24.9474 -170.81 149.241 -173.3
lowerback 17.0746 0.264015 0.934226
upperback 2.75584 0.529527 -0.47714
thorax -6.60246 0.252035 -1.15999
lowerneck -6.26963 -9.7632 -11.2797
upperneck 1.56112 -12.4712 8.20433
head 2.68576 -6.10372 3.61657
rclavicle 3.49861e-014 -2.38542e-014
rhumerus -50.2243 15.4655 -100.56
rradius 102.191
rwrist -2.08186
rhand -29.5105 36.6395
rfingers 7.12502
rthumb -2.84476 6.67873
lclavicle 3.49861e-014 -2.38542e-014
lhumerus -72.8974 -5.11037 94.2267
lradius 99.0942
lwrist 23.6562
lhand -3.70171 -11.8738
lfingers 7.12502
lthumb 22.0404 16.8902
rfemur 1.74276 1.63465 27.8075
rtibia 39.7417
rfoot -16.3885 7.55417
rtoes 12.5239
lfemur -41.6169 2.76084 -18.6079
ltibia 92.2615
lfoot -9.25652 7.5553
ltoes 5.01621
